<?xml version="1.0" standalone="no"?>
<!DOCTYPE svg PUBLIC "-//W3C//DTD SVG 20010904//EN"
 "http://www.w3.org/TR/2001/REC-SVG-20010904/DTD/svg10.dtd">
<svg version="1.0" xmlns="http://www.w3.org/2000/svg"
 width="508.000000pt" height="265.000000pt" viewBox="0 0 508.000000 265.000000"
 preserveAspectRatio="xMidYMid meet">

<g transform="translate(0.000000,265.000000) scale(0.100000,-0.100000)">
<path d="M0 1559 c0 -628 4 -1088 9 -1085 5 3 12 31 16 62 18 147 106 437 185
612 320 710 946 1238 1692 1427 120 31 244 55 280 55 15 0 30 5 33 10 4 7
-367 10 -1104 10 l-1111 0 0 -1091z"/>
<path d="M2870 2642 c0 -4 39 -14 88 -21 113 -16 291 -61 421 -106 356 -124
657 -309 933 -574 391 -374 648 -848 748 -1381 18 -94 18 -83 19 998 l1 1092
-1105 0 c-608 0 -1105 -4 -1105 -8z"/>
</g>
</svg>
