<?xml version="1.0" standalone="no"?>
<!DOCTYPE svg PUBLIC "-//W3C//DTD SVG 20010904//EN"
 "http://www.w3.org/TR/2001/REC-SVG-20010904/DTD/svg10.dtd">
<svg version="1.0" xmlns="http://www.w3.org/2000/svg"
 width="264.000000pt" height="511.000000pt" viewBox="0 0 264.000000 511.000000"
 preserveAspectRatio="xMidYMid meet">

<g transform="translate(0.000000,511.000000) scale(0.100000,-0.100000)" stroke="none">
<path d="M30 5097 l-25 -13 -3 -2530 -2 -2531 24 -12 c40 -22 436 -9 563 18
916 195 1634 834 1924 1713 48 144 109 411 109 476 0 17 5 32 10 32 6 0 10
108 10 305 0 168 -4 305 -8 305 -5 0 -15 39 -22 88 -48 323 -202 722 -390
1005 -389 587 -990 986 -1674 1112 -229 42 -467 57 -516 32z"/>
</g>
</svg>
