<?xml version="1.0" standalone="no"?>
<!DOCTYPE svg PUBLIC "-//W3C//DTD SVG 20010904//EN"
 "http://www.w3.org/TR/2001/REC-SVG-20010904/DTD/svg10.dtd">
<svg version="1.0" xmlns="http://www.w3.org/2000/svg"
 width="258.000000pt" height="511.000000pt" viewBox="0 0 258.000000 511.000000"
 preserveAspectRatio="none">

<g transform="translate(0.000000,511.000000) scale(0.100000,-0.100000)">
<path d="M0 2554 l0 -2556 213 4 c224 5 308 17 504 74 926 266 1622 1018 1813
1961 16 82 30 163 30 181 0 17 5 32 10 32 6 0 10 108 10 305 0 168 -4 305 -8
305 -5 0 -15 39 -22 88 -48 323 -202 722 -390 1005 -389 587 -990 986 -1674
1112 -141 25 -323 45 -423 45 l-63 0 0 -2556z"/>
</g>
</svg>
